<?xml version="1.0" standalone="no"?>
<!DOCTYPE svg PUBLIC "-//W3C//DTD SVG 20010904//EN"
 "http://www.w3.org/TR/2001/REC-SVG-20010904/DTD/svg10.dtd">
<svg version="1.0" xmlns="http://www.w3.org/2000/svg"
 width="600.000000pt" height="600.000000pt" viewBox="0 0 600.000000 600.000000"
 preserveAspectRatio="xMidYMid meet">

<g transform="translate(0.000000,600.000000) scale(0.100000,-0.100000)"
fill="#000000" stroke="none">
<path d="M2817 5295 c-375 -46 -799 -193 -1074 -373 -422 -278 -781 -796 -913
-1319 -79 -312 -77 -604 5 -888 36 -122 72 -207 156 -360 196 -360 453 -684
690 -867 44 -34 79 -63 79 -65 0 -2 -15 -12 -32 -23 -37 -22 -32 -24 30 -10
39 9 48 7 120 -29 42 -21 87 -42 100 -45 21 -7 21 -6 12 20 -15 39 -6 40 38 6
67 -54 68 -56 32 -102 -17 -22 -29 -40 -26 -40 3 0 28 12 56 28 l49 27 45 -50
c24 -27 47 -47 50 -44 4 3 1 62 -5 130 l-11 124 -59 103 c-47 83 -65 127 -90
225 -17 67 -33 130 -36 140 -4 16 -6 16 -33 -3 -36 -26 -40 -26 -110 10 -37
19 -61 38 -66 52 -3 13 -40 97 -81 188 l-75 165 18 170 c14 129 20 161 25 131
3 -21 4 -47 2 -57 -3 -10 10 -48 29 -86 l34 -68 -12 -93 c-13 -92 -13 -95 13
-158 14 -36 27 -63 30 -61 2 3 -4 34 -13 71 -15 61 -15 74 0 178 15 103 26
147 26 104 0 -16 132 -258 138 -252 1 2 -2 45 -8 97 -5 52 -10 189 -10 304 0
164 -5 236 -20 330 -12 66 -24 156 -27 199 -5 67 -4 78 8 71 25 -16 94 -70 97
-77 2 -5 10 -8 17 -8 9 0 3 24 -21 81 -23 55 -34 96 -33 127 l0 47 17 -42 c26
-65 34 -63 26 5 -6 57 -4 69 26 133 22 48 34 92 38 136 4 55 7 62 19 51 7 -8
26 -60 42 -117 16 -56 31 -105 35 -108 3 -4 6 52 6 123 0 71 3 152 6 181 l7
51 83 -86 83 -87 1 115 0 115 26 -27 c21 -21 27 -38 31 -92 3 -36 9 -66 13
-66 8 0 50 92 50 110 0 6 -18 45 -41 86 -33 59 -39 77 -29 89 16 20 110 79
116 73 2 -3 11 -41 20 -84 9 -51 26 -98 46 -131 18 -29 34 -51 36 -48 2 2 -10
67 -28 144 l-31 141 57 65 c32 36 59 64 60 62 2 -2 -5 -26 -16 -53 l-19 -51
101 -99 c110 -109 112 -108 25 15 -32 46 -61 89 -63 95 -2 6 16 32 42 56 l46
45 -7 -75 c-6 -65 -4 -78 12 -100 71 -92 133 -194 133 -221 0 -42 16 -36 35
15 15 40 16 50 1 128 -9 46 -16 127 -16 180 0 86 2 96 24 117 l23 22 38 -88
38 -88 -16 -110 c-14 -94 -27 -137 -91 -292 -41 -101 -73 -183 -71 -183 2 0
46 57 98 128 l94 127 112 33 c74 21 136 48 187 78 41 26 77 44 80 42 2 -3 10
-27 17 -55 11 -41 64 -130 72 -121 2 2 5 21 7 44 9 77 79 174 126 174 15 0 42
-116 42 -182 1 -73 14 -62 25 22 l8 55 43 -49 c46 -50 61 -42 21 12 -13 17
-32 50 -42 72 l-18 40 28 30 c16 17 34 30 40 30 10 0 85 -120 85 -136 0 -4 22
-39 49 -78 27 -39 61 -105 76 -147 25 -72 26 -81 17 -159 -8 -67 -15 -87 -36
-109 -15 -15 -23 -30 -19 -34 3 -4 28 -7 56 -7 l49 0 -37 -50 c-21 -28 -35
-54 -31 -57 3 -3 33 11 67 32 33 20 62 35 63 34 2 -2 11 -18 19 -35 14 -27 15
-40 5 -85 -10 -49 -16 -58 -62 -90 l-51 -36 -31 21 c-18 12 -39 26 -48 31 -13
8 -17 26 -17 85 -1 41 -7 100 -14 130 -7 30 -16 80 -20 110 -4 40 -17 72 -45
116 -44 70 -95 104 -182 123 -29 7 -90 26 -135 43 -79 29 -84 30 -108 14 -25
-16 -25 -16 -25 15 l0 31 -36 -32 c-28 -24 -44 -31 -65 -28 -18 3 -29 0 -29
-7 0 -13 20 -75 25 -75 1 0 19 7 39 15 36 15 36 15 36 -9 0 -36 12 -38 51 -11
43 31 71 24 93 -22 16 -35 16 -37 -2 -55 -10 -11 -52 -28 -92 -38 -40 -10 -76
-22 -80 -27 -4 -4 -17 -40 -30 -79 l-23 -71 -53 -16 c-29 -9 -60 -14 -69 -11
-8 4 -15 2 -15 -2 0 -5 24 -64 53 -130 49 -112 60 -129 142 -216 106 -112 233
-200 284 -196 26 2 31 6 29 22 -2 15 -32 36 -101 72 -131 68 -233 167 -282
271 -27 59 -32 78 -25 106 10 46 16 54 50 72 37 19 58 0 35 -32 -18 -26 -11
-33 25 -23 40 12 50 -17 16 -46 -46 -41 -14 -33 42 9 47 36 62 42 101 41 57
-1 116 -18 157 -43 25 -15 34 -31 44 -72 13 -52 13 -53 -16 -76 -33 -26 -68
-38 -84 -28 -7 4 -1 14 14 26 30 24 43 78 25 110 -17 33 -28 39 -77 39 -75 0
-95 -41 -67 -136 6 -20 4 -21 -39 -17 -31 4 -46 2 -46 -6 0 -6 14 -11 31 -11
17 0 40 -5 51 -11 15 -8 22 -8 28 0 9 16 60 -7 60 -26 0 -9 9 -14 23 -12 12 1
30 -1 39 -5 10 -5 26 -1 40 8 16 12 35 14 72 10 45 -6 48 -5 42 12 -20 48 -37
117 -33 129 3 7 15 15 27 18 15 4 20 2 17 -7 -3 -7 3 -55 12 -107 13 -68 33
-128 75 -218 31 -68 55 -125 54 -127 -2 -1 -31 15 -66 37 -59 38 -73 38 -53 1
5 -9 19 -82 31 -162 l22 -145 -42 -173 c-26 -109 -52 -260 -70 -403 -16 -126
-33 -235 -37 -242 -41 -66 -153 -217 -153 -206 0 8 6 21 13 28 6 7 -19 0 -58
-14 -91 -35 -133 -47 -143 -41 -5 3 -89 -15 -188 -39 l-179 -45 100 1 c55 1
104 1 109 0 5 0 -10 -21 -33 -46 -44 -48 -51 -61 -23 -45 9 5 51 23 92 40 41
17 83 35 93 41 31 17 31 3 3 -60 -14 -32 -26 -62 -26 -66 0 -3 18 8 40 25 23
18 43 30 47 27 5 -6 -34 -254 -43 -269 -3 -4 -3 -8 -1 -8 2 0 67 84 145 188
134 177 145 189 211 226 63 35 70 43 80 81 8 31 22 52 56 79 l45 38 51 -37
c28 -20 52 -35 54 -33 14 16 35 72 35 92 0 28 -7 26 140 51 425 73 755 345
873 721 49 155 61 245 61 444 0 215 -15 334 -74 576 -163 663 -469 1230 -848
1567 -229 205 -533 358 -822 417 -207 41 -441 50 -653 25z m803 -2255 c0 -23
-4 -30 -20 -30 -16 0 -20 7 -20 30 0 23 4 30 20 30 16 0 20 -7 20 -30z m540
-127 c0 -5 -9 -21 -20 -37 l-19 -30 -10 28 c-16 41 -14 46 19 46 17 0 30 -3
30 -7z m39 -644 c1 -60 -55 -183 -71 -156 -21 39 -13 120 22 207 l34 85 7 -45
c4 -25 8 -66 8 -91z m-269 -749 c-24 -49 -45 -88 -47 -86 -2 2 15 45 38 95 23
50 44 89 47 87 2 -3 -15 -46 -38 -96z"/>
<path d="M2604 3672 c-131 -44 -237 -107 -313 -187 -65 -70 -66 -72 -99 -189
-17 -66 -31 -121 -29 -122 2 -2 29 41 60 95 60 104 123 172 217 234 l55 36
120 -18 c66 -10 122 -17 124 -15 2 2 -11 25 -30 51 l-33 47 45 -33 c39 -27 52
-31 81 -26 19 4 40 10 46 14 11 7 39 118 31 125 -2 2 -47 6 -99 9 -85 5 -104
2 -176 -21z"/>
<path d="M2925 3679 c-4 -6 -5 -12 -2 -15 2 -3 7 2 10 11 7 17 1 20 -8 4z"/>
<path d="M2705 3337 l15 -37 -42 0 c-24 0 -86 -14 -138 -31 -84 -28 -102 -38
-152 -87 l-58 -56 0 -65 c0 -54 -4 -71 -26 -103 -15 -21 -25 -41 -22 -44 3 -3
25 0 49 6 29 7 58 8 86 2 37 -9 42 -7 53 14 15 27 53 38 81 23 15 -8 24 -8 32
0 23 23 87 9 87 -19 0 -10 7 -23 15 -30 8 -7 15 -20 15 -30 0 -18 -14 -30
-146 -126 -43 -31 -72 -55 -64 -52 8 3 40 13 72 22 50 14 69 28 181 139 149
147 187 209 187 307 l0 60 -68 0 -67 0 -23 44 c-13 24 -37 57 -53 72 l-30 29
16 -38z m3 -149 c23 -11 50 -31 60 -45 9 -13 27 -37 40 -53 20 -26 21 -30 6
-44 -19 -20 -41 -31 -75 -40 -27 -6 -27 -6 -18 34 7 32 6 48 -7 73 -21 41 -31
47 -74 47 -72 0 -105 -55 -76 -125 9 -21 16 -39 16 -42 0 -2 -39 -2 -87 -1
-85 3 -88 4 -101 30 -15 33 -8 50 46 110 77 86 166 104 270 56z m-72 -130 c-2
-32 -26 -35 -26 -4 0 15 6 26 14 26 7 0 13 -9 12 -22z"/>
<path d="M2930 2792 c-39 -58 -73 -121 -84 -157 -18 -60 -18 -61 4 -98 12 -20
29 -37 38 -37 12 0 8 8 -13 30 l-28 29 18 68 c12 47 32 85 61 123 37 48 79
128 72 136 -2 1 -32 -41 -68 -94z"/>
<path d="M3320 2875 c0 -3 8 -22 19 -43 10 -20 21 -54 25 -76 4 -21 17 -52 29
-68 17 -22 22 -43 21 -84 0 -30 1 -54 3 -54 1 0 7 10 14 21 12 23 7 49 -38
189 -25 78 -47 120 -63 120 -6 0 -10 -2 -10 -5z"/>
<path d="M3272 2683 c-7 -3 -28 -26 -48 -51 l-35 -47 47 -15 c27 -9 59 -14 72
-12 23 4 24 8 18 49 -6 46 -22 84 -34 82 -4 0 -13 -3 -20 -6z"/>
<path d="M2975 2635 l-50 -45 25 -21 c21 -18 33 -20 80 -16 l55 6 -25 -19
c-24 -19 -24 -20 -3 -20 12 0 23 -5 25 -10 2 -7 13 -6 30 2 29 14 34 23 18 33
-5 3 -7 26 -3 53 3 26 2 44 -2 40 -5 -5 -27 3 -51 17 -23 14 -44 25 -46 25 -2
0 -25 -21 -53 -45z"/>
<path d="M3226 2432 l6 -57 -95 -1 c-81 0 -105 -4 -164 -29 -87 -36 -89 -38
-108 -93 -10 -26 -36 -89 -58 -141 l-41 -94 29 -24 c86 -70 143 -99 239 -123
l99 -24 110 28 c96 24 120 35 198 89 105 72 105 70 33 195 -33 57 -44 88 -44
119 0 41 -3 44 -80 105 -44 35 -82 73 -86 86 -4 13 -14 22 -25 22 -17 0 -18
-6 -13 -58z m-77 -236 c14 -8 31 -12 38 -9 26 10 143 -87 143 -119 0 -21 -1
-21 -35 -6 -21 9 -28 9 -35 -2 -7 -11 -16 -11 -51 -1 -24 7 -69 12 -101 11
-32 -1 -59 4 -63 10 -5 8 -12 6 -25 -5 -22 -19 -70 -11 -70 13 0 20 49 72 67
72 8 0 31 11 51 25 42 29 48 29 81 11z"/>
<path d="M1878 2152 l-28 -3 0 -91 c0 -105 7 -115 12 -15 l3 67 42 0 c24 0 43
4 43 9 0 16 -45 36 -72 33z"/>
<path d="M3096 1757 c-31 -17 -55 -32 -52 -34 2 -2 29 6 61 18 56 21 60 21
116 5 74 -20 79 -20 79 4 0 22 -14 27 -97 33 -43 3 -61 -1 -107 -26z"/>
<path d="M2270 1416 c0 -3 23 -41 51 -85 40 -64 61 -86 102 -109 46 -26 59
-42 117 -141 36 -61 70 -109 75 -107 6 1 14 14 19 29 8 23 3 34 -50 97 -32 39
-77 101 -100 137 -32 52 -57 78 -116 118 -93 64 -98 67 -98 61z"/>
</g>
</svg>
